<svg id="Layer_1" data-name="Layer 1" xmlns="http://www.w3.org/2000/svg" width="800" height="296" viewBox="0 0 800 296"><defs><style>.cls-1{fill:#072a45;}.cls-2{fill:#e5b622;}.cls-3{fill:#10324d;}.cls-4{fill:#11334e;}.cls-5{fill:#11334d;}.cls-6{fill:#0f314c;}.cls-7{fill:#0e304b;}.cls-8{fill:#10324c;}.cls-9{fill:#12344e;}.cls-10{fill:#0c2f4a;}.cls-11{fill:#f7f6f6;}.cls-12{fill:#f2f4f5;}.cls-13{fill:#e4e8eb;}.cls-14{fill:#eff1f3;}.cls-15{fill:#ea262a;}</style></defs><path class="cls-1" d="M342.93,79c8.24-22.85,24.14-36,48.54-38.54,21.75-2.24,44.3,11,53.3,32,2.12,5,4.93,6.62,10.16,6.61q106.47-.28,212.92-.24c24.66,0,49.31.09,74,.15,10.36,0,17.13,6.27,17.29,15.9s-6.84,16.27-17.45,16.27q-85.23,0-170.44,0-58.74,0-117.46-.06c-4.21,0-6.78,1.36-8.52,5.3C435.55,138.31,417,150,393.13,149.58c-21.61-.4-40.64-14.2-49.1-35.59-.36-.93-.74-1.85-1.11-2.78A74.37,74.37,0,0,1,342.93,79Zm52.19,52.87c19.91.13,36.64-16.46,36.78-36.47a37.05,37.05,0,0,0-36.53-37.25c-20.05-.12-36.87,16.76-36.83,37A37.16,37.16,0,0,0,395.12,131.89Z"/><path class="cls-2" d="M342.93,79a74.37,74.37,0,0,0,0,32.19l-286.4,0c-2,0-4,0-6-.11-9.24-.71-15.25-7.5-14.85-16.69A15.63,15.63,0,0,1,51.54,79.05c22-.08,44,0,66,0Z"/><path class="cls-3" d="M736.68,208.24V187.32h9.11v39.1c-9.3,1.78-9.56,1.62-13.95-6.38-3.24-5.9-6.6-11.74-10.61-18.87v25.6h-9.5v-39c9-2,10.25-1.55,14.87,5.88,3,4.89,6,9.84,8.94,14.77Z"/><path class="cls-4" d="M599.4,187.36h9.2v39c-9.35,1.93-9.88,1.66-14.19-6.18-3.16-5.76-6.44-11.44-10.43-18.5v25H574.5V187.73c9-1.93,10-1.54,14.64,6a148.92,148.92,0,0,0,10.26,15.47Z"/><path class="cls-3" d="M89.89,226.43c-7.61,1.81-13.26.73-16.87-6.63-1.72-3.51-4.85-6.33-7.34-9.46l-1.45.7v15.53h-9.9V187.48c7.7,0,15.32-.5,22.85.16a10.94,10.94,0,0,1,9.87,9.8c.61,5.76-1.9,9.32-9.4,12.91ZM64,204.09c4.62-.08,9.26,1.51,12-3.1a5.26,5.26,0,0,0-.53-4.91c-3.2-3.44-7.36-2.19-11.45-1.93Z"/><path class="cls-5" d="M270,190,265.62,195c-4.51-.75-8.57-1.95-12.61-1.88-2.1,0-4.16,2.34-6.24,3.61,1.71,1.48,3.19,3.52,5.17,4.31,3.51,1.39,7.43,1.73,11,3,4.73,1.75,7.71,5.07,7.59,10.54s-3.29,8.81-8.08,10.85c-9.67,4.1-19.13,2.62-28.56-.94,2-6.86,1.95-6.62,8.21-5a31.4,31.4,0,0,0,11.25,1.13c2-.23,3.81-2.86,5.7-4.41-1.65-1.76-3-4.11-5-5.15-2.43-1.24-5.47-1.26-8.19-2-7.25-2-10.79-5.91-10.52-11.41.27-5.33,4.95-9.8,11.8-11A35.06,35.06,0,0,1,270,190Z"/><path class="cls-3" d="M541.74,227c-3.09,0-5.47.43-7.59-.14-1.69-.45-4.11-1.89-4.4-3.27-1.08-5.17-4-6.74-8.83-6-1.79.27-3.74-.28-5.45.15a5.78,5.78,0,0,0-3.48,2.55c-3.7,7.58-3.62,7.62-13,6.11,5.11-12.5,10.12-24.94,15.28-37.32,1.14-2.73,11-3.32,12.15-.63C531.58,201,536.46,213.67,541.74,227Zm-16.9-16.26c-1.46-4.55-2.81-8.72-4.15-12.89l-1.2.08-3.94,12.81Z"/><path class="cls-6" d="M307.11,187.27H335c-.42,2.26-.78,4.25-1.2,6.55H317.28v8.63h13.54c.11,2.48.19,4.36.3,6.84h-13.8V220h18.27v6.63H307.11Z"/><path class="cls-7" d="M371.46,187.25c7.06,0,13.88-.35,20.66.09,7.82.51,12.95,5.57,13,11.94.05,6.78-5,11.87-12.83,12.76-3.45.39-6.95.39-11,.59v14.06h-9.8Zm9.78,19.89c4.6-1.56,8.55-2.34,11.78-4.31,1-.62.89-6-.14-6.52-3.34-1.81-7.35-2.4-11.64-3.61Z"/><path class="cls-8" d="M657.65,209.49V220h18.19v6.69H647.33v-39.2h28c-.46,2.26-.84,4.18-1.28,6.39H657.64v8.61h13.42v7Z"/><path class="cls-7" d="M124.3,187.34h28c-.48,2.32-.89,4.35-1.34,6.53H134.36v8.79H148v6.66H134.39v10.6h18.17v6.83H124.3Z"/><path class="cls-9" d="M441.38,227c-.13-1.68-.3-2.8-.3-3.92,0-11.77,0-23.54,0-35.65H451.2v32.62h17.55c0,4.83-1.07,7.39-6.37,7.06C455.61,226.69,448.78,227,441.38,227Z"/><path class="cls-10" d="M181,232.53c9.16-3.59,8-10.17,8-16.27,0-9.46,0-18.92,0-28.76H199.2c0,3.91,0,8,0,12.06,0,7.65.05,15.3-.07,22.95-.1,6.54-4.46,12.15-10.72,13.12C186.66,235.91,184.58,234.12,181,232.53Z"/><path class="cls-11" d="M395.12,131.89a37.16,37.16,0,0,1-36.58-36.74c0-20.22,16.78-37.1,36.83-37A37.05,37.05,0,0,1,431.9,95.42C431.76,115.43,415,132,395.12,131.89ZM414.06,95c0-10.89-8-19-18.82-19A18.81,18.81,0,0,0,376.06,94.8,19.4,19.4,0,0,0,395,114,19,19,0,0,0,414.06,95Z"/><path class="cls-12" d="M64,204.09v-9.94c4.09-.26,8.25-1.51,11.45,1.93A5.26,5.26,0,0,1,76,201C73.29,205.6,68.65,204,64,204.09Z"/><path class="cls-13" d="M524.84,210.75h-9.29l3.94-12.81,1.2-.08C522,202,523.38,206.2,524.84,210.75Z"/><path class="cls-14" d="M381.24,207.14V192.7c4.29,1.21,8.3,1.8,11.64,3.61,1,.55,1.15,5.9.14,6.52C389.79,204.8,385.84,205.58,381.24,207.14Z"/><path class="cls-15" d="M414.06,95a19,19,0,0,1-19,19,19.4,19.4,0,0,1-19-19.23A18.81,18.81,0,0,1,395.24,76C406.09,76.05,414.09,84.12,414.06,95Z"/></svg>