<?xml version="1.0" standalone="no"?>
<!DOCTYPE svg PUBLIC "-//W3C//DTD SVG 20010904//EN"
 "http://www.w3.org/TR/2001/REC-SVG-20010904/DTD/svg10.dtd">
<svg version="1.0" xmlns="http://www.w3.org/2000/svg"
 width="1017.000000pt" height="1017.000000pt" viewBox="0 0 1017.000000 1017.000000"
 preserveAspectRatio="xMidYMid meet">
<metadata>
Created by potrace 1.14, written by Peter Selinger 2001-2017
</metadata>
<g transform="translate(0.000000,1017.000000) scale(0.100000,-0.100000)"
fill="#000000" stroke="none">
<path d="M9448 8425 c-2 -2 -32 -6 -68 -9 -62 -6 -96 -11 -150 -21 -14 -3 -38
-8 -55 -11 -57 -10 -70 -12 -160 -34 -215 -51 -363 -95 -665 -197 -324 -109
-465 -168 -720 -305 -301 -161 -806 -515 -1192 -836 -337 -281 -689 -600
-1019 -924 -32 -32 -61 -58 -64 -58 -2 0 -14 19 -26 43 -12 23 -32 57 -46 75
-23 31 -23 32 -4 32 12 0 21 6 22 13 3 49 99 342 160 485 148 349 334 639 539
840 30 28 57 52 60 52 4 0 12 -10 19 -23 17 -32 62 -57 103 -57 37 0 104 40
112 67 29 96 -16 169 -110 180 -75 9 -291 -189 -466 -427 -186 -253 -380 -672
-474 -1020 -9 -36 -18 -66 -19 -68 -2 -2 -19 7 -39 19 -51 30 -118 33 -172 9
-43 -18 -44 -18 -54 0 -5 10 -10 25 -10 32 0 32 -104 330 -161 462 -75 173
-227 450 -301 546 -147 193 -282 336 -384 406 -46 32 -63 38 -101 37 -123 -4
-161 -172 -52 -229 57 -29 129 -13 157 36 9 16 19 30 22 30 10 -1 98 -88 160
-160 162 -186 296 -406 429 -702 38 -85 110 -286 149 -417 30 -99 36 -133 27
-141 -6 -5 -24 -36 -40 -67 -15 -32 -29 -60 -31 -62 -2 -2 -32 25 -67 60 -106
106 -380 364 -505 476 -42 37 -101 91 -132 118 -88 80 -365 315 -454 385 -10
8 -38 31 -61 50 -143 119 -595 450 -614 450 -5 0 -11 3 -13 8 -3 6 -59 46
-110 77 -383 235 -575 333 -843 430 -215 78 -667 220 -758 239 -12 3 -31 7
-42 10 -252 66 -423 91 -620 91 -161 0 -211 -6 -301 -39 -157 -57 -251 -172
-287 -351 -13 -65 -16 -295 -4 -350 4 -18 16 -97 22 -150 2 -11 6 -45 10 -75
3 -30 8 -66 10 -80 5 -36 16 -136 30 -275 3 -33 8 -78 10 -100 3 -22 7 -71 10
-110 3 -38 7 -92 10 -120 2 -27 7 -81 10 -120 3 -38 8 -90 10 -115 3 -25 7
-79 10 -120 3 -41 8 -93 10 -115 2 -22 7 -67 10 -100 3 -33 8 -76 10 -95 5
-43 16 -136 20 -170 29 -263 102 -503 176 -578 66 -67 237 -131 444 -166 17
-3 46 -8 65 -11 19 -4 49 -8 65 -10 17 -2 48 -7 70 -10 72 -12 89 -14 160 -21
39 -3 77 -8 85 -9 8 -2 65 -6 125 -10 61 -4 121 -9 135 -11 14 -2 56 -4 93 -5
78 -1 75 -6 -33 -53 -137 -60 -297 -132 -575 -261 -176 -81 -270 -132 -313
-170 -140 -123 -222 -326 -224 -555 -1 -91 7 -204 17 -232 2 -7 7 -24 9 -38
11 -58 17 -79 42 -157 37 -120 140 -320 241 -474 88 -131 226 -319 287 -389
17 -20 51 -60 76 -90 97 -117 280 -304 426 -437 303 -275 625 -460 853 -491
77 -11 202 -5 291 13 14 2 41 7 60 10 19 3 62 13 95 21 33 9 68 17 77 19 39 8
210 71 291 107 285 128 529 313 712 538 123 152 193 278 298 540 120 298 266
597 383 781 13 21 24 40 24 42 0 6 90 141 91 137 3 -24 8 -67 13 -130 4 -41 8
-97 11 -125 8 -88 22 -223 30 -275 2 -14 7 -52 10 -85 4 -33 8 -67 10 -75 2
-8 7 -37 10 -65 4 -27 13 -84 22 -125 8 -41 16 -84 18 -95 1 -11 5 -31 8 -45
3 -14 13 -56 22 -95 41 -176 108 -349 151 -386 53 -46 93 -25 142 77 51 104
121 351 147 524 3 19 7 46 10 60 7 37 13 79 21 135 3 28 8 58 10 69 2 10 6 44
9 75 4 31 8 67 11 81 2 14 6 52 9 85 3 33 7 78 10 100 6 56 16 171 19 228 2
26 5 50 8 52 5 5 129 -195 196 -315 104 -189 237 -473 315 -677 142 -366 361
-639 696 -866 64 -43 325 -184 341 -184 3 0 41 -13 85 -30 89 -34 239 -76 330
-92 33 -6 71 -14 85 -17 14 -3 75 -7 135 -9 161 -6 267 21 455 115 80 40 263
155 292 183 7 7 29 24 48 37 19 13 37 27 40 30 3 3 30 25 60 50 271 222 626
620 848 951 111 167 225 374 246 449 4 14 11 34 16 45 11 25 47 151 55 190 22
121 27 288 12 395 -25 178 -129 368 -247 448 -47 33 -172 96 -330 167 -52 24
-139 64 -193 89 -55 25 -100 46 -102 46 -2 0 -32 13 -67 29 -164 75 -249 111
-260 111 -6 0 -9 2 -6 5 6 6 51 11 193 20 95 6 143 10 245 20 113 12 147 16
180 21 71 10 106 15 140 20 19 2 69 12 110 20 41 9 89 18 105 21 57 9 220 65
263 90 85 49 131 116 171 248 32 111 59 247 76 385 4 30 8 66 10 80 6 44 15
124 19 170 2 25 7 81 11 125 3 44 8 99 10 122 2 24 7 78 10 120 3 43 8 92 10
108 2 17 7 75 10 130 4 55 9 109 11 120 2 11 6 58 9 105 4 47 8 96 10 110 2
14 6 54 10 90 6 65 9 94 21 180 3 25 7 59 9 75 8 74 17 150 20 155 2 3 7 41
11 85 49 493 -132 712 -588 713 -64 0 -118 -1 -120 -3z"/>
</g>
</svg>
