<svg id="Layer_1" data-name="Layer 1" xmlns="http://www.w3.org/2000/svg" width="655.66" height="231.83" viewBox="0 0 655.66 231.83"><defs><style>.cls-1{fill:#d6b269;}.cls-2{fill:#231f20;}</style></defs><path class="cls-1" d="M124.93,23.5c-12,7.28-25.25,26.06-30.86,34.57a7.49,7.49,0,0,0-1.76-1.9l.53,0c.64-11.59,4.33-17.94,6.31-20.55a1.65,1.65,0,0,0,3.07-1.1,1.62,1.62,0,0,0-2.44-1.08l0,0-.14.13a1.62,1.62,0,0,0-.34.35c-1.59,1.69-6.59,8.08-7.42,22a2.58,2.58,0,0,0-3.4.58C82.17,44.17,75.07,40.33,72.94,39.41a2,2,0,0,0-.46-.18l-.17-.06v0a1.58,1.58,0,0,0-.53,0,1.64,1.64,0,1,0,2,1.73c2.87,1.6,8.78,5.94,14,16.31l.22-.11a8,8,0,0,0-.82,2.45C78.66,54.07,58.92,42.07,45,40.19c-18.25-2.45-30.15-2-25.34,11.07S27,78.94,31,80.71s17.63-.55,17.63-.55-7.27,5.17-10.85,8S33.23,99,40.61,106.87s21,17,28.3,15,16.81-8.73,18.62-20.06A70.71,70.71,0,0,1,91.66,86.6c3.75,13.27,7.27,19.57,8.78,19.26s2.21-7.45.37-21A71.38,71.38,0,0,1,110.53,97c6.19,9.67,17.62,12,25.09,10.94s16.33-14.89,20-25-.45-17.12-4.86-18.29-13.15-3-13.15-3,13.39-3.32,16.37-6.55-.54-17.62-1.36-31.53S140.67,14,124.93,23.5Z"/><circle class="cls-1" cx="101.95" cy="113.37" r="2.81"/><circle class="cls-1" cx="103.4" cy="125.33" r="2.81"/><circle class="cls-1" cx="106.11" cy="138.31" r="2.81"/><circle class="cls-1" cx="112.57" cy="150.5" r="2.81"/><circle class="cls-1" cx="120.97" cy="159.53" r="2.81"/><circle class="cls-1" cx="132.16" cy="169.4" r="2.81"/><circle class="cls-1" cx="157.95" cy="175.5" r="2.81"/><circle class="cls-1" cx="182.84" cy="167.43" r="2.81"/><circle class="cls-1" cx="209.18" cy="152.29" r="2.81"/><circle class="cls-1" cx="238.03" cy="140.53" r="2.81"/><circle class="cls-1" cx="268.62" cy="140.93" r="2.81"/><circle class="cls-1" cx="294.18" cy="154.64" r="2.81"/><circle class="cls-1" cx="312.76" cy="173.71" r="2.81"/><circle class="cls-1" cx="293.43" cy="173.57" r="2.81"/><circle class="cls-1" cx="276.27" cy="198.8" r="2.81"/><circle class="cls-1" cx="336.93" cy="183.27" r="2.81"/><circle class="cls-1" cx="329.83" cy="149.28" r="2.81"/><circle class="cls-1" cx="282.46" cy="148.47" r="2.81"/><circle class="cls-1" cx="303.22" cy="164.22" r="2.81"/><circle class="cls-1" cx="324.03" cy="180.23" r="2.81"/><circle class="cls-1" cx="283.67" cy="185.52" r="2.81"/><circle class="cls-1" cx="271.32" cy="212.61" r="2.81"/><circle class="cls-1" cx="315.91" cy="155.06" r="2.81"/><circle class="cls-1" cx="342.45" cy="148.48" r="2.81"/><circle class="cls-1" cx="354.96" cy="153.43" r="2.81"/><circle class="cls-1" cx="357.82" cy="167.18" r="2.81"/><circle class="cls-1" cx="351.71" cy="179.14" r="2.81"/><circle class="cls-1" cx="171.12" cy="174.57" r="2.81"/><circle class="cls-1" cx="195.83" cy="160.81" r="2.81"/><circle class="cls-1" cx="221.84" cy="144.22" r="2.81"/><circle class="cls-1" cx="253.35" cy="140.2" r="2.81"/><circle class="cls-1" cx="144.17" cy="174.46" r="2.81"/><path class="cls-2" d="M224.71,49.35h4l17.68,42H242l-4.57-11.16H215.22l-4.75,11.16h-4.1Zm1.84,4.27-9.79,23h19.29Z"/><path class="cls-2" d="M253.26,71.66c0-2-.3-6.29-.3-7.71h3.56c.06,2,.12,4.27.24,4.81h.18a10.24,10.24,0,0,1,9.37-5.52c8.55,0,10.45,5.81,10.45,11.81V91.37H273.2V75.23c0-4.46-1.25-8.79-6.89-8.79-5.28,0-9.49,3.68-9.49,11.22V91.37h-3.56Z"/><path class="cls-2" d="M288,71.66c0-2-.29-6.29-.29-7.71h3.56c.06,2,.12,4.27.24,4.81h.17a10.26,10.26,0,0,1,9.38-5.52c8.55,0,10.45,5.81,10.45,11.81V91.37H308V75.23c0-4.46-1.25-8.79-6.89-8.79-5.28,0-9.49,3.68-9.49,11.22V91.37H288Z"/><path class="cls-2" d="M347,86.21c-2.79,4.15-7,5.87-11.87,5.87-8.37,0-13.89-6-13.89-14.48,0-8.19,5.7-14.36,13.71-14.36,8.43,0,12.88,6.47,12.88,12.82v2.49h-23c0,3,2.08,10.33,10.39,10.33a11,11,0,0,0,9.2-4.87ZM344.3,75.34c0-4.86-4.22-8.9-9.5-8.9-7.77,0-10,7.48-10,8.9Z"/><path class="cls-2" d="M355.39,75.7h14.66v3.21H355.39Z"/><path class="cls-2" d="M414.74,84.78c-4,5.46-9.43,7.66-15.61,7.66-12.82,0-21.72-9.26-21.72-22.08s8.9-22.08,21.72-22.08c5.7,0,10.81,1.9,14.49,6.59l-3.21,2.67a13.39,13.39,0,0,0-11.28-5.7c-11,0-17.8,8.07-17.8,18.52s6.82,18.52,17.8,18.52a15.15,15.15,0,0,0,12.41-6.53Z"/><path class="cls-2" d="M423.29,46.5h3.56V91.37h-3.56Z"/><path class="cls-2" d="M460,79.85a83.24,83.24,0,0,0,.54,11.52h-3.33a27.4,27.4,0,0,1-.35-4.45h-.12c-2,3.5-5,5.16-9.62,5.16s-9.67-2.31-9.67-8.13c0-8.37,9.79-9.2,15.19-9.2h4.16V73.09c0-4.75-3.33-6.65-7.72-6.65a12.4,12.4,0,0,0-8.37,3.09l-2.07-2.44a16,16,0,0,1,10.44-3.85c6.65,0,10.92,3,10.92,9.91ZM452.9,77.6C447,77.6,441,79.08,441,83.77c0,3.38,3.26,5.11,6.23,5.11,7.6,0,9.56-4.87,9.56-9.44V77.6Z"/><path class="cls-2" d="M471.3,71.66c0-2-.3-6.29-.3-7.71h3.56c.06,2,.12,4.27.24,4.81,1.78-3.21,4.63-5.52,8.72-5.52a8.22,8.22,0,0,1,2.08.29L485.18,67a4.28,4.28,0,0,0-1.36-.24c-6.17,0-9,4.27-9,9.61v15H471.3Z"/><path class="cls-2" d="M493.43,64H497V91.37h-3.56Z"/><path class="cls-2" d="M521.15,49.35h4.21l13.53,36.86,13.65-36.86h4.16l-16,42h-3.91Z"/><path class="cls-2" d="M584,86.21c-2.79,4.15-7,5.87-11.87,5.87-8.37,0-13.89-6-13.89-14.48,0-8.19,5.7-14.36,13.71-14.36,8.43,0,12.88,6.47,12.88,12.82v2.49h-23c0,3,2.08,10.33,10.39,10.33a11,11,0,0,0,9.2-4.87Zm-2.73-10.87c0-4.86-4.22-8.9-9.5-8.9-7.77,0-10,7.48-10,8.9Z"/><path class="cls-2" d="M608,67.15h-7.83V85a3.51,3.51,0,0,0,3.8,3.86,10.62,10.62,0,0,0,4-.95l.3,3.2a15.53,15.53,0,0,1-4.63,1c-5.1,0-7.06-3.14-7.06-7.06V67.15h-5.94V64h5.94v-7.9h3.56V64H608Z"/><path class="cls-2" d="M629,63.24c8.43,0,14.42,6.05,14.42,14.42s-6,14.42-14.42,14.42-14.42-6-14.42-14.42S620.55,63.24,629,63.24Zm0,25.64c6.71,0,10.86-5,10.86-11.22S635.69,66.44,629,66.44s-10.86,5-10.86,11.22S622.27,88.88,629,88.88Zm-5.64-39.06a2.85,2.85,0,1,1-2.85,2.85A2.81,2.81,0,0,1,623.34,49.82Zm11.28,0a2.85,2.85,0,1,1-2.85,2.85A2.82,2.82,0,0,1,634.62,49.82Z"/><path class="cls-2" d="M495.21,49.82a2.85,2.85,0,1,1-2.85,2.85A2.81,2.81,0,0,1,495.21,49.82Z"/></svg>