<svg id="Logo_-_komplet" data-name="Logo - komplet" xmlns="http://www.w3.org/2000/svg" width="336" height="122.748" viewBox="0 0 336 122.748">
  <g id="Group_2" data-name="Group 2" transform="translate(104.878)">
    <path id="Path_1" data-name="Path 1" d="M334.5,57.564c-5.591,3.389-11.755,12.133-14.367,16.094a3.473,3.473,0,0,0-.819-.883l.244.014c.3-5.4,2.018-8.353,2.942-9.571a.774.774,0,1,0,.291-1.015l-.01-.011c-.008.007-.03.027-.062.058a.777.777,0,0,0-.16.163c-.739.789-3.068,3.764-3.457,10.226a1.29,1.29,0,0,0-.891-.158,1.266,1.266,0,0,0-.688.431c-2.933-5.722-6.237-7.51-7.23-7.938a.764.764,0,0,0-.215-.087c-.041-.015-.068-.024-.079-.027l0,.014a.767.767,0,1,0,.673.815c1.333.747,4.088,2.767,6.524,7.6l.1-.052a3.625,3.625,0,0,0-.381,1.139c-3.953-2.572-13.145-8.161-19.65-9.036-8.5-1.142-14.039-.936-11.8,5.154s3.417,12.887,5.29,13.711,8.2-.255,8.2-.255-3.383,2.406-5.051,3.726-2.1,5.053,1.331,8.708,9.8,7.913,13.178,6.965,7.829-4.062,8.671-9.338a33.093,33.093,0,0,1,1.921-7.065c1.747,6.177,3.387,9.115,4.09,8.968s1.029-3.468.173-9.782a33.158,33.158,0,0,1,4.522,5.645c2.882,4.5,8.206,5.574,11.682,5.091s7.607-6.93,9.293-11.654-.206-7.972-2.262-8.514-6.12-1.394-6.12-1.394,6.235-1.544,7.622-3.048-.255-8.2-.635-14.682S341.835,53.12,334.5,57.564Z" transform="translate(-284.97 -53.437)" fill="#d2a253"/>
    <g id="Group_1" data-name="Group 1" transform="translate(37.527 44.66)">
      <circle id="Ellipse_8" data-name="Ellipse 8" cx="1.308" cy="1.308" r="1.308" fill="#d2a253"/>
      <circle id="Ellipse_9" data-name="Ellipse 9" cx="1.308" cy="1.308" r="1.308" transform="translate(0.676 5.566)" fill="#d2a253"/>
      <circle id="Ellipse_10" data-name="Ellipse 10" cx="1.308" cy="1.308" r="1.308" transform="translate(1.937 11.61)" fill="#d2a253"/>
      <circle id="Ellipse_11" data-name="Ellipse 11" cx="1.308" cy="1.308" r="1.308" transform="translate(4.943 17.29)" fill="#d2a253"/>
      <circle id="Ellipse_12" data-name="Ellipse 12" cx="1.308" cy="1.308" r="1.308" transform="translate(8.856 21.492)" fill="#d2a253"/>
      <circle id="Ellipse_13" data-name="Ellipse 13" cx="1.308" cy="1.308" r="1.308" transform="translate(14.065 26.088)" fill="#d2a253"/>
      <circle id="Ellipse_14" data-name="Ellipse 14" cx="1.308" cy="1.308" r="1.308" transform="translate(26.072 28.926)" fill="#d2a253"/>
      <circle id="Ellipse_15" data-name="Ellipse 15" cx="1.308" cy="1.308" r="1.308" transform="translate(37.663 25.171)" fill="#d2a253"/>
      <circle id="Ellipse_16" data-name="Ellipse 16" cx="1.308" cy="1.308" r="1.308" transform="translate(49.926 18.12)" fill="#d2a253"/>
      <circle id="Ellipse_17" data-name="Ellipse 17" cx="1.308" cy="1.308" r="1.308" transform="translate(63.356 12.646)" fill="#d2a253"/>
      <circle id="Ellipse_18" data-name="Ellipse 18" cx="1.308" cy="1.308" r="1.308" transform="translate(77.602 12.83)" fill="#d2a253"/>
      <circle id="Ellipse_19" data-name="Ellipse 19" cx="1.308" cy="1.308" r="1.308" transform="translate(89.499 19.213)" fill="#d2a253"/>
      <circle id="Ellipse_20" data-name="Ellipse 20" cx="1.308" cy="1.308" r="1.308" transform="translate(98.152 28.093)" fill="#d2a253"/>
      <circle id="Ellipse_21" data-name="Ellipse 21" cx="1.308" cy="1.308" r="1.308" transform="translate(89.152 28.028)" fill="#d2a253"/>
      <circle id="Ellipse_22" data-name="Ellipse 22" cx="1.308" cy="1.308" r="1.308" transform="translate(81.16 39.775)" fill="#d2a253"/>
      <circle id="Ellipse_23" data-name="Ellipse 23" cx="1.308" cy="1.308" r="1.308" transform="translate(109.403 32.546)" fill="#d2a253"/>
      <circle id="Ellipse_24" data-name="Ellipse 24" cx="1.308" cy="1.308" r="1.308" transform="translate(106.101 16.72)" fill="#d2a253"/>
      <circle id="Ellipse_25" data-name="Ellipse 25" cx="1.308" cy="1.308" r="1.308" transform="translate(84.043 16.344)" fill="#d2a253"/>
      <circle id="Ellipse_26" data-name="Ellipse 26" cx="1.308" cy="1.308" r="1.308" transform="translate(93.709 23.677)" fill="#d2a253"/>
      <circle id="Ellipse_27" data-name="Ellipse 27" cx="1.308" cy="1.308" r="1.308" transform="translate(103.399 31.127)" fill="#d2a253"/>
      <circle id="Ellipse_28" data-name="Ellipse 28" cx="1.308" cy="1.308" r="1.308" transform="translate(84.606 33.592)" fill="#d2a253"/>
      <circle id="Ellipse_29" data-name="Ellipse 29" cx="1.308" cy="1.308" r="1.308" transform="translate(78.859 46.205)" fill="#d2a253"/>
      <circle id="Ellipse_30" data-name="Ellipse 30" cx="1.308" cy="1.308" r="1.308" transform="translate(99.618 19.408)" fill="#d2a253"/>
      <circle id="Ellipse_31" data-name="Ellipse 31" cx="1.308" cy="1.308" r="1.308" transform="translate(111.973 16.345)" fill="#d2a253"/>
      <circle id="Ellipse_32" data-name="Ellipse 32" cx="1.308" cy="1.308" r="1.308" transform="translate(117.797 18.651)" fill="#d2a253"/>
      <circle id="Ellipse_33" data-name="Ellipse 33" cx="1.308" cy="1.308" r="1.308" transform="translate(119.132 25.051)" fill="#d2a253"/>
      <circle id="Ellipse_34" data-name="Ellipse 34" cx="1.308" cy="1.308" r="1.308" transform="translate(116.288 30.624)" fill="#d2a253"/>
      <circle id="Ellipse_35" data-name="Ellipse 35" cx="1.308" cy="1.308" r="1.308" transform="translate(32.204 28.496)" fill="#d2a253"/>
      <circle id="Ellipse_36" data-name="Ellipse 36" cx="1.308" cy="1.308" r="1.308" transform="translate(43.711 22.088)" fill="#d2a253"/>
      <circle id="Ellipse_37" data-name="Ellipse 37" cx="1.308" cy="1.308" r="1.308" transform="translate(55.821 14.364)" fill="#d2a253"/>
      <circle id="Ellipse_38" data-name="Ellipse 38" cx="1.308" cy="1.308" r="1.308" transform="translate(70.488 12.493)" fill="#d2a253"/>
      <circle id="Ellipse_39" data-name="Ellipse 39" cx="1.308" cy="1.308" r="1.308" transform="translate(19.657 28.443)" fill="#d2a253"/>
    </g>
  </g>
  <g id="Group_3" data-name="Group 3" transform="translate(0 87.43)">
    <path id="Path_2" data-name="Path 2" d="M73.812,245.924h3.1l13.6,32.307H87.136l-3.514-8.579H66.511l-3.651,8.579H59.712Zm1.414,3.286-7.529,17.7h14.83Z" transform="translate(-59.712 -243.734)" fill="#1a1818"/>
    <path id="Path_3" data-name="Path 3" d="M136.87,275.339c0-1.552-.228-4.837-.228-5.932h2.738c.046,1.551.091,3.285.182,3.7h.137a7.886,7.886,0,0,1,7.21-4.243c6.571,0,8.031,4.471,8.031,9.08v12.549H152.2V278.076c0-3.423-.958-6.753-5.293-6.753-4.061,0-7.3,2.829-7.3,8.624v10.541H136.87Z" transform="translate(-100.824 -255.991)" fill="#1a1818"/>
    <path id="Path_4" data-name="Path 4" d="M194.3,275.339c0-1.552-.228-4.837-.228-5.932h2.738c.046,1.551.091,3.285.183,3.7h.137a7.886,7.886,0,0,1,7.21-4.243c6.571,0,8.031,4.471,8.031,9.08v12.549H209.63V278.076c0-3.423-.958-6.753-5.293-6.753-4.061,0-7.3,2.829-7.3,8.624v10.541H194.3Z" transform="translate(-131.514 -255.991)" fill="#1a1818"/>
    <path id="Path_5" data-name="Path 5" d="M269.243,286.518c-2.144,3.194-5.384,4.517-9.126,4.517-6.434,0-10.678-4.609-10.678-11.134,0-6.3,4.381-11.043,10.541-11.043a9.586,9.586,0,0,1,9.9,9.856v1.916h-17.7c0,2.281,1.6,7.94,7.985,7.94a8.469,8.469,0,0,0,7.073-3.742Zm-2.1-8.351a7.09,7.09,0,0,0-7.3-6.845c-5.978,0-7.666,5.749-7.666,6.845Z" transform="translate(-161.104 -255.991)" fill="#1a1818"/>
    <path id="Path_6" data-name="Path 6" d="M305.789,289.44H317.06V291.9H305.789Z" transform="translate(-191.218 -266.989)" fill="#1a1818"/>
    <path id="Path_7" data-name="Path 7" d="M370.848,272.224a14.04,14.04,0,0,1-12,5.887c-9.856,0-16.7-7.119-16.7-16.974s6.845-16.975,16.7-16.975c4.381,0,8.3,1.46,11.135,5.065l-2.464,2.054a10.3,10.3,0,0,0-8.67-4.381c-8.442,0-13.689,6.206-13.689,14.237s5.248,14.237,13.689,14.237a11.645,11.645,0,0,0,9.537-5.02Z" transform="translate(-210.648 -242.792)" fill="#1a1818"/>
    <path id="Path_8" data-name="Path 8" d="M417.9,241.22h2.738v34.5H417.9Z" transform="translate(-251.131 -241.22)" fill="#1a1818"/>
    <path id="Path_9" data-name="Path 9" d="M458.66,281.635a64.579,64.579,0,0,0,.411,8.853h-2.556a20.4,20.4,0,0,1-.273-3.423h-.092c-1.551,2.693-3.833,3.97-7.392,3.97-3.605,0-7.438-1.78-7.438-6.251,0-6.434,7.529-7.073,11.682-7.073H456.2v-1.278c0-3.65-2.555-5.11-5.932-5.11a9.522,9.522,0,0,0-6.434,2.373l-1.6-1.871a12.3,12.3,0,0,1,8.031-2.966c5.11,0,8.4,2.281,8.4,7.62Zm-5.476-1.733c-4.563,0-9.126,1.141-9.126,4.745,0,2.6,2.51,3.924,4.791,3.924,5.841,0,7.346-3.742,7.346-7.255V279.9Z" transform="translate(-263.647 -255.991)" fill="#1a1818"/>
    <path id="Path_10" data-name="Path 10" d="M496.917,275.339c0-1.552-.228-4.837-.228-5.932h2.738c.045,1.551.091,3.285.182,3.7a7.49,7.49,0,0,1,6.708-4.243,6.427,6.427,0,0,1,1.6.228l-.319,2.693a3.373,3.373,0,0,0-1.049-.183c-4.746,0-6.891,3.285-6.891,7.392v11.5h-2.738Z" transform="translate(-293.237 -255.991)" fill="#1a1818"/>
    <path id="Path_11" data-name="Path 11" d="M533.732,270.035h2.738v21.081h-2.738Z" transform="translate(-313.033 -256.619)" fill="#1a1818"/>
    <path id="Path_12" data-name="Path 12" d="M579.5,245.924h3.24l10.4,28.338,10.5-28.338h3.194l-12.275,32.307h-3.012Z" transform="translate(-337.49 -243.734)" fill="#1a1818"/>
    <path id="Path_13" data-name="Path 13" d="M660.549,286.518c-2.145,3.194-5.384,4.517-9.126,4.517-6.434,0-10.678-4.609-10.678-11.134,0-6.3,4.381-11.043,10.541-11.043a9.586,9.586,0,0,1,9.9,9.856v1.916h-17.7c0,2.281,1.6,7.94,7.986,7.94a8.469,8.469,0,0,0,7.073-3.742Zm-2.1-8.351a7.091,7.091,0,0,0-7.3-6.845c-5.978,0-7.666,5.749-7.666,6.845Z" transform="translate(-370.222 -255.991)" fill="#1a1818"/>
    <path id="Path_14" data-name="Path 14" d="M707.577,265.532h-6.023v13.735a2.7,2.7,0,0,0,2.92,2.966,8.13,8.13,0,0,0,3.1-.73l.229,2.464a12.086,12.086,0,0,1-3.559.73c-3.924,0-5.43-2.419-5.43-5.43V265.532h-4.563v-2.464h4.563V257h2.738v6.069h6.023Z" transform="translate(-398.817 -249.652)" fill="#1a1818"/>
    <path id="Path_15" data-name="Path 15" d="M744.835,257.021a11.088,11.088,0,1,1-11.089,11.088A10.688,10.688,0,0,1,744.835,257.021Zm0,19.713c5.156,0,8.35-3.879,8.35-8.625s-3.194-8.624-8.35-8.624-8.351,3.879-8.351,8.624S739.678,276.734,744.835,276.734ZM740.5,246.708a2.191,2.191,0,1,1-2.191,2.191A2.162,2.162,0,0,1,740.5,246.708Zm8.67,0a2.191,2.191,0,1,1-2.19,2.191A2.163,2.163,0,0,1,749.169,246.708Z" transform="translate(-419.923 -244.153)" fill="#1a1818"/>
  </g>
</svg>
