<?xml version="1.0" encoding="UTF-8" standalone="no"?>
<svg
   xmlns:dc="http://purl.org/dc/elements/1.1/"
   xmlns:cc="http://creativecommons.org/ns#"
   xmlns:rdf="http://www.w3.org/1999/02/22-rdf-syntax-ns#"
   xmlns:svg="http://www.w3.org/2000/svg"
   xmlns="http://www.w3.org/2000/svg"
   id="svg1777"
   version="1.1"
   viewBox="0 0 100 100"
   height="100mm"
   width="100mm">
  <defs
     id="defs1771">
    <clipPath
       id="clipPath134"
       clipPathUnits="userSpaceOnUse">
      <path
         id="path132"
         d="m 761.737,148.228 c -3.607,0 -6.54,-2.933 -6.54,-6.539 v 0 -16.921 c 0,-3.606 2.933,-6.539 6.54,-6.539 v 0 h 16.92 c 3.606,0 6.54,2.933 6.54,6.539 v 0 16.921 c 0,3.606 -2.934,6.539 -6.54,6.539 v 0 z" />
    </clipPath>
    <clipPath
       id="clipPath122"
       clipPathUnits="userSpaceOnUse">
      <path
         id="path120"
         d="M 0,0 H 841.89 V 595.276 H 0 Z" />
    </clipPath>
  </defs>
  <metadata
     id="metadata1774">
    <rdf:RDF>
      <cc:Work
         rdf:about="">
        <dc:format>image/svg+xml</dc:format>
        <dc:type
           rdf:resource="http://purl.org/dc/dcmitype/StillImage" />
        <dc:title></dc:title>
      </cc:Work>
    </rdf:RDF>
  </metadata>
  <g
     transform="translate(0,-197)"
     id="layer1">
    <g
       id="g116"
       transform="matrix(3.2666667,0,0,-3.2666667,-2465.9769,682.21245)">
      <g
         clip-path="url(#clipPath122)"
         id="g118">
        <g
           transform="translate(761.7363,118.2283)"
           id="g124">
          <path
             id="path126"
             style="fill:#ffffff;fill-opacity:1;fill-rule:nonzero;stroke:none"
             d="M 0,0 C -3.606,0 -6.539,2.934 -6.539,6.539 V 23.461 C -6.539,27.066 -3.606,30 0,30 h 16.921 c 3.606,0 6.54,-2.934 6.54,-6.539 V 6.539 C 23.461,2.934 20.527,0 16.921,0 Z" />
        </g>
      </g>
    </g>
    <g
       id="g128"
       transform="matrix(3.2666667,0,0,-3.2666667,-2465.9769,682.21245)">
      <g
         clip-path="url(#clipPath134)"
         id="g130">
        <g
           transform="translate(770.1547,124.9006)"
           id="g136">
          <path
             id="path138"
             style="fill:#ffffff;fill-opacity:1;fill-rule:nonzero;stroke:none"
             d="m 0,0 c 4.619,0 8.36,3.741 8.36,8.36 0,4.62 -3.741,8.361 -8.36,8.361 -4.619,0 -8.36,-3.741 -8.36,-8.361 C -8.36,3.741 -4.619,0 0,0" />
        </g>
        <g
           transform="translate(762.3799,130.2355)"
           id="g140">
          <path
             id="path142"
             style="fill:#edbd00;fill-opacity:1;fill-rule:nonzero;stroke:none"
             d="m 0,0 c -0.358,0.943 -0.586,1.952 -0.586,3.025 0,1.009 0.196,1.985 0.521,2.896 h -28.529 -0.033 c -1.626,0 -2.96,-1.334 -2.96,-2.961 0,-1.626 1.334,-2.96 2.96,-2.96 h 0.033 z" />
        </g>
        <g
           transform="translate(770.1547,136.7416)"
           id="g144">
          <path
             id="path146"
             style="fill:#e60005;fill-opacity:1;fill-rule:nonzero;stroke:none"
             d="m 0,0 c 1.922,0 3.481,-1.558 3.481,-3.481 0,-1.922 -1.559,-3.481 -3.481,-3.481 -1.922,0 -3.481,1.559 -3.481,3.481 C -3.481,-1.558 -1.922,0 0,0" />
        </g>
        <g
           transform="translate(807.5646,136.1886)"
           id="g148">
          <path
             id="path150"
             style="fill:#001f3d;fill-opacity:1;fill-rule:nonzero;stroke:none"
             d="m 0,0 h -0.033 -27.78 c -1.269,4.099 -5.075,7.059 -9.564,7.059 -5.531,0 -10.02,-4.489 -10.02,-10.019 0,-5.53 4.489,-10.02 10.02,-10.02 2.667,0 5.204,1.041 7.091,2.928 1.171,1.171 2.017,2.57 2.473,4.131 H -0.033 0 c 1.627,0 2.96,1.334 2.96,2.961 C 2.96,-1.334 1.627,0 0,0 m -32.628,-7.71 c -1.269,-1.268 -2.96,-1.984 -4.749,-1.984 -3.709,0 -6.734,3.025 -6.734,6.734 0,3.708 3.025,6.734 6.734,6.734 3.708,0 6.733,-3.026 6.733,-6.734 -0.032,-1.789 -0.715,-3.481 -1.984,-4.75" />
        </g>
      </g>
    </g>
  </g>
</svg>
